PathFileType	4	(X/Y/Z)	D:\TRACE\v60_Jaco2_6-2-23\BothDRS_Motion2_6-v60.trc
DataRate	CameraRate	NumFrames	NumMarkers	Units	OrigDataRate	OrigDataStartFrame	OrigNumFrames
100.00	100.00	      13	9	mm	100.00	5626	      7500
Frame#	Time	front left toe			Front right toe			aft left toe			aft right toe			Arm			FL body			FR body			AL Body			AR Body			
		X1	Y1	Z1	X2	Y2	Z2	X3	Y3	Z3	X4	Y4	Z4	X5	Y5	Z5	X6	Y6	Z6	X7	Y7	Z7	X8	Y8	Z8	X9	Y9	Z9	

5626	56.250	-232.35919	24.60124	-150.57770	155.44060	163.07147	-199.06082	-158.44565	125.65619	451.69839	207.23708	1.76101	428.88605	29.12195	1117.90247	-575.12921	-123.80374	598.09265	-299.85718	34.94331	591.07312	-316.63730	-27.64182	530.47101	636.61328	128.76950	519.11517	622.58704	
5627	56.260	-233.42645	24.38134	-150.74020	158.46855	165.82848	-200.23419	-156.22411	129.00661	451.47705	206.80974	2.41326	428.47528	27.85163	1116.54028	-577.21899	-124.41737	597.01129	-300.40851	34.48173	590.36938	-317.64063	-26.28441	531.75891	637.27393	129.32419	519.87952	621.70197	
5628	56.270	-234.89685	24.08022	-150.96057	161.66591	166.08107	-201.62262	-154.15758	129.72240	451.49890	205.30179	2.92521	428.07889	26.98467	1115.45630	-578.98944	-125.67271	596.55444	-301.22531	33.16817	589.84723	-318.71332	-25.41931	532.61932	635.79138	129.78792	520.94714	620.65527	
5629	56.280	-235.63280	23.64375	-151.14534	164.25917	163.06442	-203.59306	-151.26266	127.24277	451.55673	204.30875	3.86874	427.83838	25.69015	1114.19971	-581.03564	-126.57171	595.93793	-301.91132	32.09872	589.14923	-319.41364	-24.90414	533.66711	635.67645	130.81316	522.42676	619.50079	
5630	56.290	-236.71315	23.44352	-151.44281	166.42023	159.28923	-205.49449	-147.85649	123.74546	451.72263	203.30356	4.30461	427.25409	23.64255	1113.22083	-583.02399	-127.56130	595.47021	-302.87064	31.91951	588.86194	-321.03726	-24.30692	534.99243	634.68402	131.05910	523.16205	618.47272	
5631	56.300	-238.09138	23.25683	-151.66377	167.64264	154.35323	-207.57028	-143.49095	118.77983	451.63791	202.31073	5.07534	427.07254	21.75605	1112.69373	-585.00732	-128.27716	594.66498	-303.85550	31.13879	588.35791	-322.31390	-23.40548	536.02362	633.58453	131.90962	524.74219	617.24689	
5632	56.310	-239.19899	22.62924	-151.97798	168.30299	148.48709	-209.66220	-140.24409	112.98335	451.57620	201.56683	5.96434	426.75577	19.54070	1111.55237	-587.00616	-128.78764	593.90717	-304.80280	30.46114	587.97595	-323.61987	-23.15501	536.93848	632.54529	132.25063	525.73041	615.65833	
5633	56.320	-239.82550	22.27404	-152.18314	168.98203	141.35796	-212.51501	-136.18163	106.07192	451.03769	199.96550	6.44076	426.34299	17.02021	1111.01160	-588.95575	-129.77403	593.10358	-306.08868	29.62292	587.76563	-325.35480	-22.20240	537.76660	630.76422	133.44049	527.16241	614.46667	
5634	56.330	-241.32085	21.95364	-152.43636	170.50423	133.75790	-215.39723	-133.79526	98.99775	449.48471	199.44908	7.35062	425.98679	15.00336	1110.18408	-591.20422	-130.24060	592.84851	-307.15729	28.42586	587.16022	-326.20355	-22.49898	538.42279	628.74078	133.43645	527.94116	612.97797	
5635	56.340	-242.16832	21.64165	-152.76086	172.56258	124.75282	-218.88805	-129.65997	89.61232	448.14191	198.61136	8.03426	425.77121	12.39107	1109.69604	-593.56891	-131.08607	592.02045	-308.55142	27.97358	586.86884	-327.94312	-21.32700	539.85461	628.47961	134.10951	528.91931	611.30530	
5636	56.350	-242.84378	21.17530	-152.84079	174.96832	115.97591	-222.19667	-127.24582	80.90372	446.00656	197.00201	8.65358	425.05682	10.16654	1108.73669	-595.86896	-132.20262	591.64093	-310.11551	27.05966	586.63159	-329.51953	-20.12400	540.42932	626.59015	135.53780	530.53546	609.70593	
5637	56.360	-244.43748	20.85299	-153.27655	176.95280	107.84647	-226.07350	-123.58176	70.84346	443.73666	196.39374	9.37847	424.73572	8.19769	1107.76758	-598.40594	-133.00941	591.11188	-311.53821	25.98120	586.04926	-331.04736	-19.68359	540.96869	625.06812	135.90657	531.37500	608.00018	
5638	56.370	-245.31956	20.34249	-153.47571	177.84534	99.09843	-230.02580	-120.07222	61.24284	440.93524	195.26375	10.15315	424.33615	6.03375	1107.09741	-600.75763	-133.81801	590.01208	-312.96695	25.84284	586.21771	-333.69632	-18.94675	541.71466	623.38898	136.61095	532.32184	605.93213	
